Patient4_TMGait_0pt6_01_left_41_EMG.mot
version=1
nRows=26
nColumns=33
inDegrees=no
endheader
time	1LAddLong	2LGlutMax	3LGlutMed	4LIliopsoas	5LSemiMemb	6LBicFemLong	7LRecFem	8LVastMed	9LVastLat	10LGasMed	11LTibAnt	12lTibPost	13LPeroneusLong	14LSol	15LExtDigLong	16LFlexDigLong	17RAddLong	18RGlutMax	19RGlutMed	20RIliopsoas	21RSemiMemb	22RBicFemLong	23RRecFem	24RVastMed	25RVastLat	26RGasMed	27RTibAnt	28RTibPost	29RPeroneusLong	30RSol	31RExtDigLong	32RFlexDigLong
51.148	0.005951	0.22858	-0.066833	0.011292	0.013275	-0.080872	0.016479	0.003204	0.07019	-0.023193	0.14908	0.014801	-0.001373	-0.017853	0.059662	-0.004425	0.039368	-0.4158	0.22461	-0.059052	-0.039063	-0.19196	0.4892	-0.24323	-0.20935	-0.000458	0.40894	-0.019073	-0.32028	0.16083	-0.005493	-0.007019
51.149	0.007477	0.21118	-0.058746	0.003052	0.016327	-0.089874	-0.004425	0.006561	0.056305	-0.020142	0.084229	0.008087	0.001068	0.021515	0.20096	0.004272	0.02182	-0.43274	0.3096	-0.023804	-0.043945	-0.072937	0.44006	-0.082855	-0.071259	-0.014648	0.60883	-0.028534	-0.16052	0.19104	-0.00412	-0.016785
51.15	0.000763	0.21683	-0.059814	0.018921	0.014954	-0.08728	0.017548	0.009766	0.048676	-0.022125	-0.031281	0.016174	0.015106	0.014343	0.37048	0.007172	-0.009003	-0.51666	0.22217	0.09964	-0.027466	0.06134	0.1712	0.007782	-0.036469	-0.019684	0.11765	-0.022278	-0.44464	0.14862	-0.006561	-0.014496
51.151	0.011902	0.21927	-0.070038	0.010986	0.015869	-0.085144	0.00351	0.008392	0.053864	-0.025635	-0.023041	0.023346	0.058441	-0.014343	0.39993	0.007782	-0.027008	-0.46158	-0.13748	0.12756	-0.03952	0.11826	-0.4837	-0.078888	-0.094299	-0.013885	-0.39093	-0.019226	-1.057	0.032959	-0.00412	-0.009766
51.152	0.007019	0.20691	-0.062256	-0.002747	0.017395	-0.093536	0.019684	0.004883	0.046387	-0.037384	-0.049286	0.012512	0.034637	-0.007477	-0.35156	0.005798	-0.021667	-0.50323	0.05661	0.066681	-0.064545	0.11581	-0.68436	-0.070038	0.18585	-0.012512	-0.033875	-0.017395	0.39688	-0.005035	-0.002441	-0.012817
51.153	0.00351	0.18265	-0.066681	0.00061	0.005646	-0.080872	-0.006714	0.005646	0.045471	-0.037537	-0.076904	0.012207	0.014496	0.02182	-0.19211	-0.007019	0.010376	-0.50995	0.17944	0.042419	-0.10422	0.06958	-0.42313	0.000153	0.30121	0.00412	0.19028	-0.015106	1.4322	-0.12268	-0.002136	-0.006714
51.154	0.005493	0.15595	-0.063934	0.004883	0.002136	-0.070953	0.023956	0.005646	0.042114	-0.040894	-0.020905	0.031128	0.005646	0.005341	-0.1767	0.013428	0.028687	-0.55512	0.31937	-0.037842	-0.17807	0.1181	-0.16617	0.048523	0.16373	0.014038	-0.097046	-0.015411	0.002899	-0.17517	-0.001831	0.000153
51.155	0.005798	0.10437	-0.053558	0.003357	-0.011444	-0.078278	0.036163	0.008087	0.041809	-0.040131	-0.016174	0.026855	0.020142	-0.007935	-0.1088	-0.007019	0.017548	-0.63263	0.53741	-0.072632	-0.10971	0.12894	-0.21561	0.12558	0.21683	-0.001373	0.11826	-0.02182	-0.03891	-0.14191	-0.00412	-0.001373
51.156	0.005951	0.11169	-0.032501	-0.010834	-0.013885	-0.065765	0.003357	0.006714	0.036774	-0.024414	-0.038757	0.016479	-0.011749	0.032501	0.055084	-0.003357	0.013885	-0.57129	0.90744	0.007477	-0.066528	0.063782	-0.046082	0.20493	0.18921	-0.009918	0.5368	-0.02121	-1.4665	-0.17197	-0.003204	-0.005341
51.157	-0.00946	0.11612	-0.020599	-0.005493	0.015411	-0.083618	0.024414	0.006714	0.046539	0.004883	0.00061	0.030823	-0.04303	0.011292	0.19836	-0.010376	0.015411	-0.46097	0.53497	0.079193	-0.054016	0.083313	-0.103	0.20554	0.14847	-0.011292	0.20554	-0.031433	-0.58334	-0.10681	-0.001526	-0.007629
51.158	-0.001984	0.080566	-0.02594	0.013428	-0.026245	-0.12085	0.014954	0.010071	0.037689	-0.009003	0.029297	0.001831	-0.044861	-0.041199	0.34271	-0.011902	0.010681	-0.47226	-0.21469	0.069733	-0.074768	0.066223	-0.16617	0.13062	0.18051	-0.014191	-0.26535	-0.022583	0.14862	-0.10712	-0.002289	-0.003967
51.159	0.01358	0.091095	-0.012665	0.028229	-0.016327	-0.14496	0.029449	0.003967	0.055084	-0.036011	0.082703	0.032806	-0.022583	-0.045624	0.069427	0.000763	0.019836	-0.42709	-0.31494	0.079346	0.006256	0.081024	-0.10666	0.051422	0.075836	-0.019684	-0.177	-0.022125	0.16235	-0.17487	-0.000153	0.000916
51.16	-0.007629	0.092773	0.011902	0.011749	-0.017548	-0.13062	0.000763	0.004883	0.036469	-0.035706	0.14175	0.025482	0.016022	-0.035858	0.041809	0.013123	-0.011597	-0.40009	0.33905	0.16586	0.033417	0.12665	0.15686	0.076294	0.010223	-0.025024	0.19775	-0.022888	0.57938	-0.080109	-0.000458	0.005341
51.161	0.016327	0.060577	-0.02243	0.006104	-0.0383	-0.1712	0.009613	0.009003	0.044556	-0.053711	0.046387	0.02533	-0.006561	-0.000916	-0.001831	0.005646	-0.014343	-0.40863	-0.13001	0.17456	0.079193	0.15198	0.44968	-0.068054	-0.048828	-0.007782	0.16693	-0.025024	-0.54352	-0.18433	-0.001526	-0.001526
51.162	0.013275	0.059204	-0.032349	0.001831	0.029449	-0.17349	0.009155	0.004578	0.055847	-0.063477	-0.0177	0.012054	0.035858	0.000763	-0.11932	0.010681	-0.023499	-0.39352	-1.0435	0.057068	0.1358	0.14267	0.47531	-0.13458	-0.065613	0.000763	0.0737	-0.014191	1.7665	-0.21835	-0.000916	-0.000763
51.163	0.009308	0.045013	-0.029144	-0.001984	0.084534	-0.15671	0.000153	0.002899	0.049591	-0.046997	-0.063019	0.018921	0.019531	-0.029144	-0.13245	-0.002136	-0.023499	-0.3421	-0.64438	-0.079346	0.12054	0.19714	0.19012	0.026855	0.061646	0.013733	-0.04837	-0.014801	0.51346	-0.21866	-0.003815	0.001984
51.164	0.021667	0.056	0.015259	0.000305	0.081482	-0.13641	0.011444	0.006866	0.04715	-0.050812	-0.039063	0.010681	-0.05249	-0.052185	-0.11841	0.001373	-0.0354	-0.27069	0.88165	-0.083008	0.11841	0.18097	-0.44861	0.11078	-0.008545	0.010681	-0.46234	-0.018768	-1.3739	-0.12482	-0.003204	-0.009003
51.165	0.017395	0.042725	0.025635	-0.004272	0.052795	-0.12634	0.010071	0.003357	0.046234	-0.07019	0.043335	0.033112	-0.072784	-0.10956	-0.11993	0.005035	-0.024567	-0.22385	0.88104	-0.008392	0.069122	0.20142	-0.74371	0.13168	0.041962	0.007935	-0.60959	-0.006409	0.045166	0.032349	0.000305	-0.013275
51.166	0.003662	0.013275	-0.024567	0.002899	0.029602	-0.13565	0.017548	0.003967	0.061188	-0.035248	0.026855	0.025482	-0.02121	-0.087128	-0.13825	0.0383	-0.012512	-0.29541	-0.093689	0.056	0.034332	0.15259	-0.48523	0.1561	0.10757	-0.009003	-0.41184	-0.019073	0.11948	0.18921	-0.003815	-0.007172
51.167	-0.007019	0.004272	-0.03952	0	0.020599	-0.12207	0.01358	0.006409	0.051727	-0.006256	-0.032349	0.034485	-0.002441	-0.078735	-0.072021	-0.087738	-0.004578	-0.30441	-0.1767	0.11292	-0.001526	0.10712	-0.14069	0.14038	0.11139	-0.007782	-0.12604	-0.019684	0.075226	0.2301	-0.003357	-0.010681
51.168	0.007629	0.002747	-0.022888	0.007935	0.022125	-0.12772	0.017395	0.000763	0.049438	0.021057	0.005646	0.013428	-0.050659	-0.001373	0.038147	-0.093689	-0.002136	-0.32044	0.60455	0.077972	-0.037689	0.10086	0.044098	0.017395	0.044708	-0.018921	-0.041199	-0.011139	0.30991	0.15106	-0.00351	-0.010223
51.169	0.006409	-0.021057	-0.025635	0.013885	0.02182	-0.12512	0.013885	0.005951	0.054474	0.039825	0.041656	0.003967	-0.11154	0.071259	0.063019	0.009003	-0.00885	-0.29526	-0.12955	0.075226	-0.063477	0.1181	0.11993	-0.092163	0.019989	-0.031433	-0.01709	-0.017395	-0.037079	0.15945	-0.002594	-0.012054
51.17	-0.01236	-0.00412	-0.009766	0.013885	0.016937	-0.13779	0.029144	0.003357	0.039825	0.006714	0.039825	0.023651	-0.063934	0.090637	0.024109	0.031738	-0.001678	-0.28961	-0.23865	0.00412	-0.05127	0.14389	0.096283	-0.10025	0.045166	-0.036469	0.059204	-0.019226	1.2537	0.19928	-0.004272	-0.008087
51.171	-0.00351	0.011444	-0.00412	0.011902	0.005188	-0.12512	0.036316	0.006409	0.036621	-0.015106	0.035553	0.014038	-0.017548	-0.025787	-0.057678	-0.006866	0.00351	-0.18326	-0.12573	-0.037689	-0.03952	0.13001	0.336	-0.13306	0.012054	-0.014648	0.37186	-0.014954	1.7343	0.049591	-0.001526	-0.010681
51.172	-0.007477	0.009613	-0.050964	0.007629	0.005188	-0.11108	0.045471	0.002899	0.029755	0	0.010223	-0.000305	0.008392	-0.096588	-0.077667	0.021515	0.016022	-0.12238	0.19211	-0.16113	-0.032959	0.13092	0.42862	-0.14648	-0.072937	0.019226	0.14511	-0.012512	0.95962	-0.15015	0.002136	0.001526
51.173	-0.032349	0.022125	-0.1091	0.007935	0.001984	-0.10101	0.035858	-0.003357	0.028229	-0.013123	0.006714	0.015259	0.019836	-0.23819	-0.097656	0.012054	0.025635	-0.10513	0.39352	-0.14206	-0.022736	0.13992	0.26138	-0.16403	-0.015564	0.032654	-0.32852	-0.015869	0.52414	-0.30243	-0.001831	0.004425
